<svg width="24" height="28" viewBox="0 0 24 28" fill="none" xmlns="http://www.w3.org/2000/svg">
<path fill-rule="evenodd" clip-rule="evenodd" d="M23.25 9C23.25 6.92894 21.5711 5.25 19.5 5.25H9.5C7.42894 5.25 5.75 6.92894 5.75 9V24C5.75 26.0711 7.42894 27.75 9.5 27.75H19.5C21.5711 27.75 23.25 26.0711 23.25 24V9ZM20.75 9C20.75 8.30965 20.1904 7.75 19.5 7.75H9.5C8.80965 7.75 8.25 8.30965 8.25 9V24C8.25 24.6904 8.80965 25.25 9.5 25.25H19.5C20.1904 25.25 20.75 24.6904 20.75 24V9Z" fill="#5F6368"/>
<path d="M4.5 2.75H17C17.6904 2.75 18.25 2.19035 18.25 1.5C18.25 0.80965 17.6904 0.25 17 0.25H4.5C2.42894 0.25 0.75 1.92894 0.75 4V21.5C0.75 22.1904 1.30965 22.75 2 22.75C2.69035 22.75 3.25 22.1904 3.25 21.5V4C3.25 3.30965 3.80965 2.75 4.5 2.75Z" fill="#5F6368"/>
</svg>
