<svg width="26" height="26" viewBox="0 0 26 26" fill="none" xmlns="http://www.w3.org/2000/svg">
<path d="M11.6588 21.361C14.863 23.2196 18.7109 24.25 23.0004 24.25L23.6149 21.7905C23.84 20.8901 23.9525 20.44 23.8769 20.037C23.8101 19.682 23.6423 19.3536 23.3935 19.0917C23.1111 18.7944 22.6802 18.6221 21.8186 18.2775L19.8368 17.4846C19.1725 17.219 18.8404 17.0861 18.5093 17.076C18.2165 17.067 17.9259 17.1266 17.6604 17.2501C17.36 17.39 17.1071 17.6429 16.6012 18.1487L12.7491 21.949M7.68432 18.3091C3.93644 14.5592 1.75035 9.24812 1.75035 3L4.20951 2.38513C5.10982 2.16005 5.55997 2.0475 5.96296 2.12318C6.31805 2.18985 6.64632 2.35769 6.90829 2.60653C7.20556 2.88891 7.3779 3.31974 7.72255 4.18137L8.61092 6.4023C8.84381 6.98454 8.96026 7.27566 8.98034 7.57031C8.99811 7.83105 8.96117 8.09261 8.87191 8.33823C8.77104 8.6158 8.57854 8.86331 8.19355 9.3583L4.47183 14.047M24.25 1.75L1.75 24.25" stroke="white" stroke-width="2" stroke-linecap="round" stroke-linejoin="round"/>
</svg>
