<svg width="42" height="42" viewBox="0 0 42 42" fill="none" xmlns="http://www.w3.org/2000/svg">
<path fill-rule="evenodd" clip-rule="evenodd" d="M41.8327 20.9993C41.8327 32.5052 32.5052 41.8327 20.9993 41.8327C9.49341 41.8327 0.166016 32.5052 0.166016 20.9993C0.166016 9.49341 9.49341 0.166016 20.9993 0.166016C32.5052 0.166016 41.8327 9.49341 41.8327 20.9993ZM20.9993 32.9785C21.8623 32.9785 22.5618 32.2789 22.5618 31.416V18.916C22.5618 18.0531 21.8623 17.3535 20.9993 17.3535C20.1364 17.3535 19.4368 18.0531 19.4368 18.916V31.416C19.4368 32.2789 20.1364 32.9785 20.9993 32.9785ZM20.9993 10.5827C22.15 10.5827 23.0827 11.5154 23.0827 12.666C23.0827 13.8166 22.15 14.7493 20.9993 14.7493C19.8487 14.7493 18.916 13.8166 18.916 12.666C18.916 11.5154 19.8487 10.5827 20.9993 10.5827Z" fill="#1C274C"/>
</svg>
