<svg width="22" height="32" viewBox="0 0 22 32" fill="none" xmlns="http://www.w3.org/2000/svg">
<path d="M10.4551 24.334V31.0007M10.4551 31.0007H5.45508M10.4551 31.0007H15.4551" stroke="white" stroke-width="2" stroke-linecap="round" stroke-linejoin="round"/>
<path d="M13.7878 4.33334C13.7878 2.49239 12.2954 1 10.4544 1C8.61348 1 7.12109 2.49239 7.12109 4.33334V14.3333C7.12109 16.1743 8.61348 17.6667 10.4544 17.6667C12.2954 17.6667 13.7878 16.1743 13.7878 14.3333V4.33334Z" stroke="white" stroke-width="2" stroke-linecap="round" stroke-linejoin="round"/>
<path d="M20.0182 17.2578C19.4009 19.2773 18.1599 21.0496 16.4734 22.3205C14.7869 23.5915 12.7412 24.2958 10.6297 24.3327C8.51819 24.3695 6.44931 23.737 4.71942 22.5257C2.98954 21.3143 1.68753 19.5866 1 17.5898" stroke="white" stroke-width="2" stroke-linecap="round" stroke-linejoin="round"/>
</svg>
