<svg width="32" height="22" viewBox="0 0 32 22" fill="none" xmlns="http://www.w3.org/2000/svg">
<path d="M22.6667 7.66667L26.9613 5.08987C28.2832 4.29672 28.9442 3.90015 29.488 3.95085C29.9622 3.99505 30.3948 4.24 30.6767 4.62388C31 5.06413 31 5.83492 31 7.3765V14.6235C31 16.165 31 16.9358 30.6767 17.3762C30.3948 17.76 29.9622 18.005 29.488 18.0492C28.9442 18.0998 28.2832 17.7033 26.9613 16.9102L22.6667 14.3333M6.33333 21H17.3333C19.2002 21 20.1337 21 20.8467 20.6367C21.4738 20.3172 21.9838 19.8072 22.3033 19.18C22.6667 18.467 22.6667 17.5335 22.6667 15.6667V6.33333C22.6667 4.4665 22.6667 3.53307 22.3033 2.82003C21.9838 2.19282 21.4738 1.68288 20.8467 1.36332C20.1337 1 19.2002 1 17.3333 1H6.33333C4.4665 1 3.53307 1 2.82003 1.36332C2.19282 1.68288 1.68288 2.19282 1.36332 2.82003C1 3.53307 1 4.46648 1 6.33333V15.6667C1 17.5335 1 18.467 1.36332 19.18C1.68288 19.8072 2.19282 20.3172 2.82003 20.6367C3.53307 21 4.46648 21 6.33333 21Z" stroke="white" stroke-width="2" stroke-linecap="round" stroke-linejoin="round"/>
</svg>
