<svg width="32" height="32" viewBox="0 0 32 32" fill="none" xmlns="http://www.w3.org/2000/svg">
<path d="M15.4167 6H17.3333C19.2002 6 20.1337 6 20.8467 6.36332C21.4738 6.68288 21.9838 7.19282 22.3033 7.82003C22.6667 8.53307 22.6667 9.4665 22.6667 11.3333V12.6667L26.9613 10.0899C28.2832 9.29672 28.9442 8.90015 29.488 8.95085C29.9622 8.99505 30.3948 9.24 30.6767 9.62388C31 10.0641 31 10.8349 31 12.3765V19.6235C31 20.465 31 21.077 30.9473 21.5307M1 1L6.00008 6.00008M6.00008 6.00008C4.35278 6.00137 3.48932 6.02228 2.82003 6.36332C2.19282 6.68288 1.68288 7.19282 1.36332 7.82003C1 8.53307 1 9.46648 1 11.3333V20.6667C1 22.5335 1 23.467 1.36332 24.18C1.68288 24.8072 2.19282 25.3172 2.82003 25.6367C3.53307 26 4.46648 26 6.33333 26H17.3333C19.2002 26 20.1337 26 20.8467 25.6367C21.4738 25.3172 21.9838 24.8072 22.3033 24.18C22.5082 23.778 22.5975 23.3062 22.6365 22.6365M6.00008 6.00008L22.6365 22.6365M31 31L22.6365 22.6365" stroke="white" stroke-width="2" stroke-linecap="round" stroke-linejoin="round"/>
</svg>
